<svg xmlns="http://www.w3.org/2000/svg" version="1.1" xmlns:xlink="http://www.w3.org/1999/xlink" xmlns:svgjs="http://svgjs.dev/svgjs" width="1000" height="623" viewBox="0 0 1000 623"><g transform="matrix(1,0,0,1,-0.6060461876177783,0.2522267206477409)"><svg viewBox="0 0 396 247" data-background-color="#ffffff" preserveAspectRatio="xMidYMid meet" height="623" width="1000" xmlns="http://www.w3.org/2000/svg" xmlns:xlink="http://www.w3.org/1999/xlink"><g id="tight-bounds" transform="matrix(1,0,0,1,0.23999429029663588,-0.09999999999999432)"><svg viewBox="0 0 395.52 247.2" height="247.2" width="395.52"><g><svg></svg></g><g><svg viewBox="0 0 395.52 247.2" height="247.2" width="395.52"><g><g><path xmlns="http://www.w3.org/2000/svg" d="M1 208.814l0-42.627h38.195v14.85h142.94l11.574 24.595c0 0.772-2.604 1.485-7.812 2.141-5.208 0.694-14.178 1.042-26.91 1.041zM1 38.675h179.978v27.778h-141.783l0 14.56-38.195 0zM318.999 208.814h-38.195l-0.086-42.627 38.281 0zM280.515 66.163h-75.232v-27.777h189.237v27.777h-75.521l0 14.85-38.454 0z" fill="#a437db" fill-rule="nonzero" stroke="none" stroke-width="1" stroke-linecap="butt" stroke-linejoin="miter" stroke-miterlimit="10" stroke-dasharray="" stroke-dashoffset="0" font-family="none" font-weight="none" font-size="none" text-anchor="none" style="mix-blend-mode: normal" data-fill-palette-color="tertiary"></path></g></g><g transform="matrix(1,0,0,1,0,85.4210737154119)"><svg viewBox="0 0 395.52 76.3578525691762" height="76.3578525691762" width="395.52"><g><svg viewBox="0 0 395.52 76.3578525691762" height="76.3578525691762" width="395.52"><g><svg viewBox="0 0 395.52 76.3578525691762" height="76.3578525691762" width="395.52"><g transform="matrix(1,0,0,1,0,46.15209774063855)"><svg viewBox="0 0 395.52 30.205754828537643" height="30.205754828537643" width="395.52"><g id="textblocktransform"><svg viewBox="0 0 395.52 30.205754828537643" height="30.205754828537643" width="395.52" id="textblock"><g><svg viewBox="0 0 395.52 30.205754828537643" height="30.205754828537643" width="395.52"><g transform="matrix(1,0,0,1,0,0)"><svg width="395.52" viewBox="4 -29.450000762939453 507.3599853515625 38.75" height="30.205754828537643" data-palette-color="#a437db"><path d="M31.3 0L4 0 4-29.4 35.1-29.4 35.1-24.6 10.6-24.6 10.6-17.7 29.3-17.7 29.3-12.75 10.6-12.75 10.6-4.8 35.3-4.8 37.3-0.55Q37.3-0.35 35.95-0.18 34.6 0 31.3 0L31.3 0ZM61.1 0L46.95 0Q43.6 0 42.2-0.35 40.8-0.7 40.8-1.05L40.8-1.05 42.3-4.8Q43.75-4.65 47.62-4.48 51.5-4.3 57.2-4.3L57.2-4.3 59.7-4.3Q60.95-4.3 61.27-4.98 61.6-5.65 61.6-6.8L61.6-6.8Q61.6-7.95 61.22-8.65 60.85-9.35 59.7-9.35L59.7-9.35 47.4-9.35Q43.9-9.35 42.35-10.68 40.8-12 40.8-14.65L40.8-14.65 40.8-16.65Q40.8-17.35 40.95-18.3 41.1-19.25 41.7-20.2 42.3-21.15 43.65-21.78 45-22.4 47.4-22.4L47.4-22.4 61.2-22.4Q64.2-22.4 65.45-22.05 66.7-21.7 66.7-21.35L66.7-21.35 66.2-17.6Q64.75-17.75 60.85-17.93 56.95-18.1 51.3-18.1L51.3-18.1 48.8-18.1Q47.55-18.1 47.22-17.43 46.9-16.75 46.9-15.85L46.9-15.85Q46.9-14.9 47.22-14.28 47.55-13.65 48.8-13.65L48.8-13.65 61.1-13.65Q64.5-13.65 66.1-12.25 67.7-10.85 67.7-8.7L67.7-8.7 67.7-5.75Q67.7-4.85 67.57-3.85 67.45-2.85 66.85-1.98 66.25-1.1 64.9-0.55 63.55 0 61.1 0L61.1 0ZM79.3 9.3L73.2 9.3 73.2-22.4 77.3-22.4 78.55-21.75Q80.8-22 83.92-22.2 87.05-22.4 91.05-22.4L91.05-22.4 93.6-22.4Q96.1-22.4 97.45-21.75 98.8-21.1 99.37-20.1 99.95-19.1 100.07-18 100.2-16.9 100.2-16L100.2-16 100.2-6.4Q100.2-5.65 100.07-4.58 99.95-3.5 99.37-2.45 98.8-1.4 97.45-0.7 96.1 0 93.6 0L93.6 0 91.05 0Q87.25 0 84.3-0.2 81.35-0.4 79.3-0.6L79.3-0.6 79.3 9.3ZM80.85-4.3L80.85-4.3 91.7-4.3Q92.65-4.3 93.37-4.8 94.1-5.3 94.1-6.3L94.1-6.3 94.1-16.1Q94.15-17.2 93.57-17.65 93-18.1 91.7-18.1L91.7-18.1 89.2-18.1Q86-18.1 83.52-17.98 81.05-17.85 79.3-17.7L79.3-17.7 79.3-5.85Q79.3-4.75 79.52-4.53 79.75-4.3 80.85-4.3ZM125.59 0L111.79 0Q108.44 0 106.82-1.35 105.19-2.7 105.19-5.75L105.19-5.75 105.19-16Q105.19-16.75 105.32-17.82 105.44-18.9 106.02-19.95 106.59-21 107.97-21.7 109.34-22.4 111.79-22.4L111.79-22.4 125.59-22.4Q128.09-22.4 129.44-21.7 130.79-21 131.37-19.95 131.94-18.9 132.07-17.82 132.19-16.75 132.19-16L132.19-16 132.19-6.4Q132.19-5.5 132.07-4.4 131.94-3.3 131.34-2.3 130.74-1.3 129.39-0.65 128.04 0 125.59 0L125.59 0ZM113.69-4.3L113.69-4.3 123.69-4.3Q126.14-4.3 126.14-6.3L126.14-6.3 126.14-16.1Q126.14-18.1 123.69-18.1L123.69-18.1 113.69-18.1Q111.29-18.1 111.29-16.1L111.29-16.1 111.29-6.3Q111.29-4.3 113.69-4.3ZM143.79 0L137.69 0 137.69-22.4 141.79-22.4 143.69-21.4Q144.99-22.1 146.49-22.5 147.99-22.9 150.29-22.9L150.29-22.9Q153.94-22.9 156.22-22.1 158.49-21.3 159.24-20.9L159.24-20.9 157.49-16.55Q156.89-16.85 155.51-17.32 154.14-17.8 152.29-18.2 150.44-18.6 148.24-18.6L148.24-18.6 147.69-18.6Q145.29-18.6 144.56-17.65 143.84-16.7 143.79-14.5L143.79-14.5 143.79 0ZM172.99 0L171.44 0Q167.64 0 166.24-1.6 164.84-3.2 164.84-6.4L164.84-6.4 164.84-18.1 160.74-18.1 160.74-22.4 162.84-22.4Q163.79-22.4 164.21-22.7 164.64-23 164.84-23.9L164.84-23.9 165.84-29.25 170.94-29.25 170.94-22.4 181.34-22.4 181.34-18.1 170.94-18.1 170.94-6.35Q170.94-5.1 171.54-4.7 172.14-4.3 173.34-4.3L173.34-4.3 180.39-4.3 180.89-0.5Q179.84-0.35 177.69-0.18 175.54 0 172.99 0L172.99 0ZM213.98 0L207.38 0 207.33-24.65 194.33-24.65 194.33-29.45 227.03-29.45 227.03-24.65 213.98-24.65 213.98 0ZM248.93 0L235.13 0Q231.78 0 230.16-1.35 228.53-2.7 228.53-5.75L228.53-5.75 228.53-16Q228.53-16.75 228.66-17.82 228.78-18.9 229.36-19.95 229.93-21 231.31-21.7 232.68-22.4 235.13-22.4L235.13-22.4 248.93-22.4Q251.43-22.4 252.78-21.7 254.13-21 254.71-19.95 255.28-18.9 255.41-17.82 255.53-16.75 255.53-16L255.53-16 255.53-6.4Q255.53-5.5 255.41-4.4 255.28-3.3 254.68-2.3 254.08-1.3 252.73-0.65 251.38 0 248.93 0L248.93 0ZM237.03-4.3L237.03-4.3 247.03-4.3Q249.48-4.3 249.48-6.3L249.48-6.3 249.48-16.1Q249.48-18.1 247.03-18.1L247.03-18.1 237.03-18.1Q234.63-18.1 234.63-16.1L234.63-16.1 234.63-6.3Q234.63-4.3 237.03-4.3ZM270.18 0L267.63 0Q265.18 0 263.8-0.65 262.43-1.3 261.85-2.3 261.28-3.3 261.15-4.4 261.03-5.5 261.03-6.4L261.03-6.4 261.03-22.4 267.13-22.4 267.13-6.3Q267.08-5.2 267.85-4.75 268.63-4.3 269.53-4.3L269.53-4.3 279.43-4.3Q280.53-4.3 280.73-4.5 280.93-4.7 280.93-5.8L280.93-5.8 280.93-22.4 287.03-22.4 287.03 0 282.93 0 281.03-1Q279.03-0.6 276.3-0.3 273.58 0 270.18 0L270.18 0ZM299.13 0L293.03 0 293.03-22.4 297.13-22.4 299.03-21.4Q300.33-22.1 301.83-22.5 303.33-22.9 305.63-22.9L305.63-22.9Q309.28-22.9 311.55-22.1 313.83-21.3 314.58-20.9L314.58-20.9 312.83-16.55Q312.23-16.85 310.85-17.32 309.48-17.8 307.63-18.2 305.78-18.6 303.58-18.6L303.58-18.6 303.03-18.6Q300.63-18.6 299.9-17.65 299.18-16.7 299.13-14.5L299.13-14.5 299.13 0ZM324.17 0L318.07 0 318.07-22.4 322.17-22.4 324.17-21.4Q326.27-21.8 329.22-22.1 332.17-22.4 335.97-22.4L335.97-22.4 338.47-22.4Q340.97-22.4 342.32-21.7 343.67-21 344.25-19.95 344.82-18.9 344.95-17.82 345.07-16.75 345.07-16L345.07-16 345.07 0 338.97 0 338.97-16.1Q338.97-18.1 336.57-18.1L336.57-18.1 325.67-18.1Q324.72-18.1 324.45-17.93 324.17-17.75 324.17-17L324.17-17 324.17 0ZM359.77 0L357.27 0Q353.47 0 351.77-1.78 350.07-3.55 350.07-6.65L350.07-6.65Q350.07-9.9 351.85-11.65 353.62-13.4 357.27-13.4L357.27-13.4 359.82-13.4Q363.57-13.4 366.57-13.2 369.57-13 371.52-12.8L371.52-12.8 371.52-16.1Q371.52-16.55 371.42-17.03 371.32-17.5 370.82-17.8 370.32-18.1 369.12-18.1L369.12-18.1 366.62-18.1Q361.17-18.1 357.52-17.93 353.87-17.75 352.57-17.6L352.57-17.6 352.02-21.4Q352.02-22.1 355.82-22.25 359.62-22.4 368.52-22.4L368.52-22.4 371.02-22.4Q373.52-22.4 374.87-21.7 376.22-21 376.8-19.95 377.37-18.9 377.5-17.82 377.62-16.75 377.62-16L377.62-16 377.62 0 373.52 0 371.57-1Q369.47-0.65 366.52-0.33 363.57 0 359.77 0L359.77 0ZM358.57-4.3L358.57-4.3 370.02-4.3Q371.12-4.3 371.32-4.5 371.52-4.7 371.52-5.75L371.52-5.75 371.52-9.6 358.57-9.6Q357.22-9.6 356.7-8.95 356.17-8.3 356.17-6.9L356.17-6.9Q356.17-5.5 356.77-4.9 357.37-4.3 358.57-4.3ZM389.47 0L383.37 0 383.37-22.4 387.47-22.4 388.72-21.8Q390.17-22.05 392.27-22.23 394.37-22.4 397.27-22.4L397.27-22.4 399.77-22.4Q401.22-22.4 402.57-22.03 403.92-21.65 404.57-20.95L404.57-20.95Q405.87-21.6 408.17-22 410.47-22.4 414.17-22.4L414.17-22.4 416.67-22.4Q419.17-22.4 420.52-21.7 421.87-21 422.44-19.95 423.02-18.9 423.14-17.82 423.27-16.75 423.27-16L423.27-16 423.27 0 417.17 0 417.17-16.1Q417.17-18.1 414.77-18.1L414.77-18.1 407.77-18.1Q406.97-18.1 406.67-17.9 406.37-17.7 406.37-17L406.37-17 406.37 0 400.27 0 400.27-16.1Q400.27-18.1 397.87-18.1L397.87-18.1 390.97-18.1Q390.02-18.1 389.74-17.93 389.47-17.75 389.47-17L389.47-17 389.47 0ZM445.17 0L435.12 0Q432.62 0 431.27-0.65 429.92-1.3 429.34-2.3 428.77-3.3 428.64-4.4 428.52-5.5 428.52-6.4L428.52-6.4 428.52-16Q428.52-16.75 428.64-17.82 428.77-18.9 429.34-19.95 429.92-21 431.29-21.7 432.67-22.4 435.12-22.4L435.12-22.4 445.87-22.4Q449.17-22.4 451.04-21.78 452.92-21.15 453.69-19.75 454.47-18.35 454.47-16L454.47-16 454.47-8.6 445.72-8.6Q441.22-8.6 438.39-8.8 435.57-9 434.62-9.05L434.62-9.05 434.62-6.3Q434.57-4.3 437.02-4.3L437.02-4.3 439.57-4.3Q442.27-4.3 444.84-4.38 447.42-4.45 449.57-4.58 451.72-4.7 453.02-4.8L453.02-4.8 455.02-1.55Q455.02 0 445.17 0L445.17 0ZM434.62-16.1L434.62-12.9 448.37-12.9 448.37-16.1Q448.37-17.1 448.14-17.5 447.92-17.9 446.82-18 445.72-18.1 443.07-18.1L443.07-18.1 437.02-18.1Q434.62-18.1 434.62-16.1L434.62-16.1ZM466.11 0L460.01 0 460.01-22.4 464.11-22.4 466.11-21.4Q468.21-21.8 471.16-22.1 474.11-22.4 477.91-22.4L477.91-22.4 480.41-22.4Q482.91-22.4 484.26-21.7 485.61-21 486.19-19.95 486.76-18.9 486.89-17.82 487.01-16.75 487.01-16L487.01-16 487.01 0 480.91 0 480.91-16.1Q480.91-18.1 478.51-18.1L478.51-18.1 467.61-18.1Q466.66-18.1 466.39-17.93 466.11-17.75 466.11-17L466.11-17 466.11 0ZM503.01 0L501.46 0Q497.66 0 496.26-1.6 494.86-3.2 494.86-6.4L494.86-6.4 494.86-18.1 490.76-18.1 490.76-22.4 492.86-22.4Q493.81-22.4 494.24-22.7 494.66-23 494.86-23.9L494.86-23.9 495.86-29.25 500.96-29.25 500.96-22.4 511.36-22.4 511.36-18.1 500.96-18.1 500.96-6.35Q500.96-5.1 501.56-4.7 502.16-4.3 503.36-4.3L503.36-4.3 510.41-4.3 510.91-0.5Q509.86-0.35 507.71-0.18 505.56 0 503.01 0L503.01 0Z" opacity="1" transform="matrix(1,0,0,1,0,0)" fill="#a437db" class="undefined-text-0" data-fill-palette-color="primary" id="text-0"></path></svg></g></svg></g></svg></g></svg></g><g transform="matrix(1,0,0,1,176.1423885353905,0)"><svg viewBox="0 0 43.235222929218985 41.74435317303902" height="41.74435317303902" width="43.235222929218985"><g><svg xmlns="http://www.w3.org/2000/svg" xmlns:xlink="http://www.w3.org/1999/xlink" version="1.1" x="0" y="0" viewBox="3 5 58 56" style="enable-background:new 0 0 64 64;" xml:space="preserve" height="41.74435317303902" width="43.235222929218985" class="icon-icon-0" data-fill-palette-color="accent" id="icon-0"><g fill="#bb84e8" data-fill-palette-color="accent"><path d="M12 55H4c-0.552 0-1 0.448-1 1v5h1v-4h2v4h4v-4h2v4h1v-5C13 55.448 12.552 55 12 55z" fill="#bb84e8" data-fill-palette-color="accent"></path><path d="M8 51c1.103 0 2-0.897 2-2v-2c0-1.103-0.897-2-2-2s-2 0.897-2 2v2C6 50.103 6.897 51 8 51z" fill="#bb84e8" data-fill-palette-color="accent"></path><path d="M28 55h-8c-0.552 0-1 0.448-1 1v5h1v-4h2v4h4v-4h2v4h1v-5C29 55.448 28.552 55 28 55z" fill="#bb84e8" data-fill-palette-color="accent"></path><path d="M26 49v-2c0-1.103-0.897-2-2-2s-2 0.897-2 2v2c0 1.103 0.897 2 2 2S26 50.103 26 49z" fill="#bb84e8" data-fill-palette-color="accent"></path><path d="M60 55h-8c-0.552 0-1 0.448-1 1v5h1v-4h2v4h4v-4h2v4h1v-5C61 55.448 60.552 55 60 55z" fill="#bb84e8" data-fill-palette-color="accent"></path><path d="M54 47v2c0 1.103 0.897 2 2 2s2-0.897 2-2v-2c0-1.103-0.897-2-2-2S54 45.897 54 47z" fill="#bb84e8" data-fill-palette-color="accent"></path><path d="M44 55h-8c-0.552 0-1 0.448-1 1v5h1v-4h2v4h4v-4h2v4h1v-5C45 55.448 44.552 55 44 55z" fill="#bb84e8" data-fill-palette-color="accent"></path><path d="M38 47v2c0 1.103 0.897 2 2 2s2-0.897 2-2v-2c0-1.103-0.897-2-2-2S38 45.897 38 47z" fill="#bb84e8" data-fill-palette-color="accent"></path><path d="M47 37h-7c-0.553 0-1 0.447-1 1v3h2v-2h14v2h2v-3c0-0.553-0.447-1-1-1h-7v-3c0-0.553-0.447-1-1-1H34.816c-0.414-1.161-1.514-2-2.816-2s-2.402 0.839-2.816 2H16c-0.553 0-1 0.447-1 1v3H8c-0.553 0-1 0.447-1 1v3h2v-2h14v2h2v-3c0-0.553-0.447-1-1-1h-7v-2h12.184c0.414 1.161 1.514 2 2.816 2s2.402-0.839 2.816-2H47V37z" fill="#bb84e8" data-fill-palette-color="accent"></path><path d="M43 21c3.859 0 7-3.14 7-7s-3.141-7-7-7-7 3.14-7 7S39.141 21 43 21zM46 13h2v2h-2V13zM42 9h2v2h-2V9zM42 17h2v2h-2V17zM38 13h2v2h-2V13z" fill="#bb84e8" data-fill-palette-color="accent"></path><rect x="31" y="5" width="2" height="2" fill="#bb84e8" data-fill-palette-color="accent"></rect><path d="M43 23c-0.737 0-1.449-0.099-2.135-0.267l1.769 3.981C43.251 28.103 44.632 29 46.151 29 48.273 29 50 27.273 50 25.151c0-0.732-0.055-1.396-0.163-2.049l-0.46-2.759C47.746 21.983 45.49 23 43 23z" fill="#bb84e8" data-fill-palette-color="accent"></path><path d="M17.849 29c1.52 0 2.9-0.897 3.518-2.286l1.769-3.981C22.449 22.901 21.737 23 21 23c-2.49 0-4.746-1.017-6.377-2.656l-0.46 2.76C14.055 23.755 14 24.419 14 25.076 14 27.273 15.727 29 17.849 29z" fill="#bb84e8" data-fill-palette-color="accent"></path><path d="M35.522 19C34.562 17.569 34 15.849 34 14s0.562-3.569 1.522-5h-7.044C29.438 10.431 30 12.151 30 14s-0.562 3.569-1.522 5H35.522z" fill="#bb84e8" data-fill-palette-color="accent"></path><path d="M21 21c3.859 0 7-3.14 7-7s-3.141-7-7-7-7 3.14-7 7S17.141 21 21 21zM16 13h4V9h2v4h4v2h-4v4h-2v-4h-4V13z" fill="#bb84e8" data-fill-palette-color="accent"></path></g></svg></g></svg></g><g></g></svg></g></svg></g></svg></g></svg></g><defs></defs></svg><rect width="395.52" height="247.2" fill="none" stroke="none" visibility="hidden"></rect></g></svg></g></svg>